<svg xmlns="http://www.w3.org/2000/svg" viewBox="0 0 1200 900" preserveAspectRatio="xMidYMid slice">
  <defs>
    <linearGradient id="sky" x1="0" y1="0" x2="0" y2="1">
      <stop offset="0%" stop-color="#05060f"/>
      <stop offset="35%" stop-color="#1c1836"/>
      <stop offset="62%" stop-color="#5a2f4d"/>
      <stop offset="82%" stop-color="#c96a3e"/>
      <stop offset="100%" stop-color="#ffb27a"/>
    </linearGradient>
    <radialGradient id="sun" cx="50%" cy="100%" r="75%">
      <stop offset="0%" stop-color="#ffcf8f" stop-opacity="0.95"/>
      <stop offset="35%" stop-color="#ff9a4d" stop-opacity="0.5"/>
      <stop offset="100%" stop-color="#ff9a4d" stop-opacity="0"/>
    </radialGradient>
    <linearGradient id="road" x1="0" y1="0" x2="0" y2="1">
      <stop offset="0%" stop-color="#5f4038"/>
      <stop offset="25%" stop-color="#332f34"/>
      <stop offset="70%" stop-color="#201f22"/>
      <stop offset="100%" stop-color="#121215"/>
    </linearGradient>
  </defs>

  <rect x="0" y="0" width="1200" height="900" fill="url(#sky)"/>

  <ellipse cx="600" cy="480" rx="340" ry="220" fill="url(#sun)"/>

  <path d="M0,478 Q120,450 260,468 T560,458 T840,470 T1200,452 L1200,486 L0,486 Z" fill="#241c33" opacity="0.9"/>

  <polygon points="150,900 1050,900 626,480 574,480" fill="url(#road)"/>

  <polygon points="150,900 172,900 604,481 600,481" fill="#e9dfc9" opacity="0.55"/>
  <polygon points="1050,900 1028,900 600,481 596,481" fill="#e9dfc9" opacity="0.55"/>

  <g fill="#ffd98f">
    <polygon points="586,860 614,860 610,806 590,806" opacity="0.95"/>
    <polygon points="591,784 609,784 606,748 594,748" opacity="0.85"/>
    <polygon points="594,731 606,731 604,706 596,706" opacity="0.7"/>
    <polygon points="596,696 604,696 603,679 597,679" opacity="0.55"/>
    <polygon points="597,670 603,670 602,659 598,659" opacity="0.4"/>
    <polygon points="598,652 602,652 601,645 599,645" opacity="0.3"/>
  </g>

  <path d="M0,900 L0,872 Q600,824 1200,872 L1200,900 Z" fill="#0a0a0c"/>
</svg>
